PathFileType	3	(X/Y/Z)	dance_move_1__fused_aligned.trc
DataRate	CameraRate	NumFrames	NumMarkers	Units	OrigDataRate	OrigDataStartFrame	OrigNumFrames
100.0	100.0	12	19	mm	100.0	695	890
Frame#	Time	pelvis			neck			head			hip_left			hip_right			knee_left			knee_right			ankle_left			ankle_right			heel_left			heel_right			toe_left			toe_right			shoulder_left			shoulder_right			elbow_left			elbow_right			wrist_left			wrist_right			
		X1	Y1	Z1	X2	Y2	Z2	X3	Y3	Z3	X4	Y4	Z4	X5	Y5	Z5	X6	Y6	Z6	X7	Y7	Z7	X8	Y8	Z8	X9	Y9	Z9	X10	Y10	Z10	X11	Y11	Z11	X12	Y12	Z12	X13	Y13	Z13	X14	Y14	Z14	X15	Y15	Z15	X16	Y16	Z16	X17	Y17	Z17	X18	Y18	Z18	X19	Y19	Z19	
695	6.94000	131.871341	764.090101	149.163221	129.702085	1260.968659	-128.203594	122.181368	1313.512529	-289.059260	53.022131	765.589544	159.003950	210.720722	762.590657	139.322524	-151.910964	506.537161	-95.066616	270.350276	474.642336	-154.687782	-119.818994	143.349893	53.857966	256.094516	110.538844	-9.531562	-103.446041	99.285451	89.827375	251.259617	68.866494	31.820350	-198.585345	89.707700	-106.051113	265.519516	42.119183	-187.860366	-52.615148	1230.345531	-79.871647	309.576737	1205.904836	-101.850489	-154.010930	964.821689	-89.087896	390.471537	933.075702	-140.901215	-176.888451	726.867620	-189.349429	405.002487	706.562406	-253.755922
696	6.95000	131.176473	763.753195	150.540414	129.110458	1260.664915	-126.633257	121.500780	1313.142238	-287.527734	52.438919	765.301395	160.512927	209.914223	762.204993	140.567938	-150.827078	506.073852	-94.378075	266.571150	474.655946	-154.364849	-119.882900	142.846416	54.369231	254.522295	110.769481	-8.993720	-103.759476	98.735864	90.411518	250.125246	69.111746	32.387920	-197.877274	89.511904	-106.139761	263.260300	42.451114	-187.266074	-53.320943	1229.768450	-78.629979	309.069252	1205.429532	-100.773277	-151.926849	963.970539	-88.608738	387.452168	932.569374	-140.557976	-173.292501	726.159452	-188.179657	398.591923	707.411545	-253.773210
697	6.96000	130.481605	763.416288	151.917606	128.518831	1260.361170	-125.062919	120.820192	1312.771948	-285.996208	51.855707	765.013246	162.021905	209.107724	761.819329	141.813352	-149.743193	505.610542	-93.689533	262.792024	474.669556	-154.041917	-119.946805	142.342938	54.880496	252.950074	111.000119	-8.455879	-104.072910	98.186277	90.995661	248.990875	69.356998	32.955490	-197.169204	89.316107	-106.228410	261.001084	42.783045	-186.671782	-54.026738	1229.191368	-77.388310	308.561766	1204.954229	-99.696064	-149.842768	963.119388	-88.129580	384.432799	932.063045	-140.214736	-169.696551	725.451285	-187.009884	392.181358	708.260684	-253.790498
698	6.97000	129.786738	763.079382	153.294799	127.927203	1260.057426	-123.492582	120.139604	1312.401657	-284.464682	51.272495	764.725097	163.530882	208.301225	761.433665	143.058765	-148.659308	505.147233	-93.000991	259.012898	474.683166	-153.718985	-120.010711	141.839460	55.391761	251.377853	111.230756	-7.918038	-104.386345	97.636691	91.579804	247.856503	69.602249	33.523061	-196.461133	89.120310	-106.317059	258.741868	43.114976	-186.077490	-54.732533	1228.614287	-76.146641	308.054281	1204.478925	-98.618851	-147.758687	962.268238	-87.650422	381.413431	931.556717	-139.871497	-166.100601	724.743118	-185.840112	385.770794	709.109823	-253.807786
699	6.98000	128.464093	761.822802	153.942683	126.584644	1258.718684	-121.976511	118.680138	1311.524293	-282.755061	50.092643	763.538260	164.183146	206.835754	760.107342	143.702273	-146.939004	504.264752	-94.652115	255.489147	475.069366	-155.179565	-119.775071	141.558330	55.192603	250.363472	111.782242	-8.439486	-104.595117	97.413787	91.617252	247.278492	70.175420	33.101792	-195.001454	88.972437	-106.975554	257.407369	43.591816	-186.417390	-56.213453	1226.460257	-75.478624	306.899061	1203.304612	-97.761217	-144.189099	959.255669	-89.138415	376.658594	930.237835	-140.660781	-157.879951	722.750797	-187.574177	375.141983	709.644014	-255.171381
700	6.99000	127.141449	760.566221	154.590567	125.242084	1257.379943	-120.460440	117.220671	1310.646928	-281.045439	48.912790	762.351423	164.835410	205.370283	758.781019	144.345780	-145.218700	503.382271	-96.303239	251.965396	475.455566	-156.640146	-119.539432	141.277200	54.993445	249.349090	112.333727	-8.960934	-104.803889	97.190884	91.654700	246.700480	70.748590	32.680524	-193.541774	88.824564	-107.634049	256.072870	44.068655	-186.757290	-57.694373	1224.306228	-74.810607	305.743842	1202.130300	-96.903583	-140.619511	956.243100	-90.626408	371.903758	928.918953	-141.450065	-149.659301	720.758476	-189.308242	364.513172	710.178205	-256.534976
701	7.00000	125.818805	759.309641	155.238451	123.899525	1256.041202	-118.944369	115.761205	1309.769564	-279.335818	47.732938	761.164586	165.487674	203.904811	757.454696	144.989288	-143.498396	502.499789	-97.954364	248.441645	475.841767	-158.100727	-119.303792	140.996070	54.794287	248.334709	112.885212	-9.482381	-105.012662	96.967981	91.692148	246.122469	71.321760	32.259255	-192.082095	88.676691	-108.292543	254.738370	44.545495	-187.097190	-59.175293	1222.152198	-74.142590	304.588623	1200.955987	-96.045949	-137.049923	953.230532	-92.114400	367.148921	927.600071	-142.239348	-141.438652	718.766155	-191.042307	353.884361	710.712396	-257.898571
702	7.01000	124.496160	758.053061	155.886335	122.556965	1254.702460	-117.428298	114.301739	1308.892200	-277.626196	46.553086	759.977749	166.139938	202.439340	756.128373	145.632795	-141.778092	501.617308	-99.605488	244.917894	476.227967	-159.561308	-119.068153	140.714940	54.595129	247.320327	113.436697	-10.003829	-105.221434	96.745077	91.729596	245.544457	71.894930	31.837987	-190.622416	88.528819	-108.951038	253.403871	45.022335	-187.437091	-60.656213	1219.998169	-73.474573	303.433404	1199.781674	-95.188315	-133.480335	950.217963	-93.602393	362.394085	926.281189	-143.028632	-133.218002	716.773834	-192.776372	343.255550	711.246586	-259.262166
703	7.02000	123.173516	756.796480	156.534219	121.214406	1253.363719	-115.912228	112.842272	1308.014836	-275.916574	45.373234	758.790912	166.792202	200.973869	754.802050	146.276303	-140.057788	500.734827	-101.256612	241.394143	476.614167	-161.021889	-118.832514	140.433810	54.395971	246.305946	113.988182	-10.525277	-105.430206	96.522174	91.767044	244.966446	72.468101	31.416718	-189.162736	88.380946	-109.609533	252.069372	45.499174	-187.776991	-62.137134	1217.844139	-72.806555	302.278185	1198.607361	-94.330681	-129.910746	947.205394	-95.090385	357.639248	924.962308	-143.817916	-124.997352	714.781513	-194.510436	332.626739	711.780777	-260.625761
704	7.03000	121.850872	755.539900	157.182103	119.871846	1252.024977	-114.396157	111.382806	1307.137471	-274.206953	44.193382	757.604075	167.444466	199.508398	753.475727	146.919810	-138.337484	499.852346	-102.907736	237.870392	477.000367	-162.482470	-118.596874	140.152680	54.196813	245.291564	114.539667	-11.046725	-105.638978	96.299271	91.804492	244.388434	73.041271	30.995450	-187.703057	88.233073	-110.268027	250.734872	45.976014	-188.116891	-63.618054	1215.690110	-72.138538	301.122966	1197.433049	-93.473046	-126.341158	944.192826	-96.578378	352.884412	923.643426	-144.607200	-116.776702	712.789192	-196.244501	321.997928	712.314968	-261.989356
705	7.04000	120.528227	754.283320	157.829986	118.529286	1250.686236	-112.880086	109.923340	1306.260107	-272.497331	43.013530	756.417238	168.096730	198.042927	752.149404	147.563318	-136.617180	498.969865	-104.558860	234.346641	477.386567	-163.943051	-118.361235	139.871550	53.997655	244.277183	115.091152	-11.568173	-105.847751	96.076367	91.841940	243.810422	73.614441	30.574181	-186.243377	88.085200	-110.926522	249.400373	46.452853	-188.456791	-65.098974	1213.536080	-71.470521	299.967747	1196.258736	-92.615412	-122.771570	941.180257	-98.066371	348.129575	922.324544	-145.396484	-108.556052	710.796871	-197.978566	311.369118	712.849159	-263.352951
706	7.05000	119.205583	753.026740	158.477870	117.186727	1249.347494	-111.364015	108.463873	1305.382743	-270.787710	41.833677	755.230401	168.748994	196.577456	750.823081	148.206825	-134.896876	498.087384	-106.209985	230.822890	477.772768	-165.403631	-118.125595	139.590420	53.798497	243.262801	115.642637	-12.089621	-106.056523	95.853464	91.879387	243.232411	74.187611	30.152913	-184.783698	87.937327	-111.585017	248.065874	46.929693	-188.796691	-66.579894	1211.382050	-70.802504	298.812527	1195.084423	-91.757778	-119.201982	938.167688	-99.554363	343.374738	921.005662	-146.185768	-100.335402	708.804550	-199.712631	300.740307	713.383349	-264.716546
